<?xml version="1.0" encoding="UTF-8"?>
<svg width="512" height="512" viewBox="0 0 512 512" xmlns="http://www.w3.org/2000/svg">
  <!-- Material 3 Flutter Logo - Simplified Version -->
  
  <defs>
    <!-- Material 3 primary color gradient -->
    <linearGradient id="primaryGradient" x1="0%" y1="0%" x2="100%" y2="100%">
      <stop offset="0%" style="stop-color:#6750A4;stop-opacity:1" />
      <stop offset="100%" style="stop-color:#7F67BE;stop-opacity:1" />
    </linearGradient>
    
    <!-- Material 3 elevation shadow -->
    <filter id="elevation" x="-20%" y="-20%" width="140%" height="140%">
      <feDropShadow dx="0" dy="4" stdDeviation="8" flood-color="#000000" flood-opacity="0.15"/>
    </filter>
    
    <!-- Inner glow for better visibility -->
    <filter id="glow">
      <feGaussianBlur stdDeviation="1" result="coloredBlur"/>
      <feMerge> 
        <feMergeNode in="coloredBlur"/>
        <feMergeNode in="SourceGraphic"/>
      </feMerge>
    </filter>
  </defs>
  
  <!-- Background with Material 3 rounded corners -->
  <rect x="32" y="32" width="448" height="448" rx="64" fill="url(#primaryGradient)" filter="url(#elevation)"/>
  
  <!-- Inner padding area -->
  <rect x="64" y="64" width="384" height="384" rx="48" fill="none" stroke="#FFFFFF" stroke-width="2" opacity="0.1"/>
  
  <!-- Flutter F symbol - Material 3 style -->
  <g transform="translate(256, 256)">
    <!-- Main F with rounded corners -->
    <path d="M -70 -100 L 70 -100 Q 80 -100 80 -90 L 80 -70 Q 80 -60 70 -60 L -15 -60 L -15 -30 L 55 -30 Q 65 -30 65 -20 L 65 0 Q 65 10 55 10 L -15 10 L -15 100 L -70 100 Z" 
          fill="#FFFFFF" 
          filter="url(#glow)"/>
    
    <!-- Material 3 accent dots -->
    <circle cx="-50" cy="-80" r="6" fill="#E8DEF8" opacity="0.8"/>
    <circle cx="50" cy="-80" r="4" fill="#E8DEF8" opacity="0.6"/>
    <circle cx="-30" cy="70" r="8" fill="#E8DEF8" opacity="0.7"/>
  </g>
  
  <!-- Material 3 floating action button accent -->
  <circle cx="400" cy="112" r="20" fill="#E8DEF8" opacity="0.9"/>
  <circle cx="400" cy="112" r="16" fill="#6750A4"/>
  <path d="M 400 104 L 400 120 M 392 112 L 408 112" stroke="#FFFFFF" stroke-width="1.5" stroke-linecap="round"/>
</svg> 