<?xml version="1.0" encoding="UTF-8"?>
<svg width="512" height="512" viewBox="0 0 512 512" xmlns="http://www.w3.org/2000/svg">
  <!-- Material 3 Flutter Logo -->
  
  <!-- Background circle with Material 3 elevation -->
  <defs>
    <linearGradient id="bgGradient" x1="0%" y1="0%" x2="100%" y2="100%">
      <stop offset="0%" style="stop-color:#6750A4;stop-opacity:1" />
      <stop offset="100%" style="stop-color:#7F67BE;stop-opacity:1" />
    </linearGradient>
    
    <!-- Material 3 shadow -->
    <filter id="materialShadow" x="-50%" y="-50%" width="200%" height="200%">
      <feDropShadow dx="0" dy="8" stdDeviation="16" flood-color="#000000" flood-opacity="0.12"/>
      <feDropShadow dx="0" dy="4" stdDeviation="8" flood-color="#000000" flood-opacity="0.14"/>
    </filter>
    
    <!-- Inner glow for the F -->
    <filter id="innerGlow">
      <feGaussianBlur stdDeviation="2" result="coloredBlur"/>
      <feMerge> 
        <feMergeNode in="coloredBlur"/>
        <feMergeNode in="SourceGraphic"/>
      </feMerge>
    </filter>
  </defs>
  
  <!-- Main background circle with Material 3 styling -->
  <circle cx="256" cy="256" r="240" fill="url(#bgGradient)" filter="url(#materialShadow)"/>
  
  <!-- Inner circle for depth -->
  <circle cx="256" cy="256" r="220" fill="none" stroke="#FFFFFF" stroke-width="2" opacity="0.1"/>
  
  <!-- Flutter F symbol with Material 3 styling -->
  <g transform="translate(256, 256)">
    <!-- Main F shape with rounded corners -->
    <path d="M -80 -120 L 80 -120 Q 90 -120 90 -110 L 90 -90 Q 90 -80 80 -80 L -20 -80 L -20 -40 L 60 -40 Q 70 -40 70 -30 L 70 -10 Q 70 0 60 0 L -20 0 L -20 120 L -80 120 Z" 
          fill="#FFFFFF" 
          filter="url(#innerGlow)"/>
    
    <!-- Material 3 accent elements -->
    <circle cx="-60" cy="-100" r="8" fill="#E8DEF8" opacity="0.8"/>
    <circle cx="60" cy="-100" r="6" fill="#E8DEF8" opacity="0.6"/>
    <circle cx="-40" cy="80" r="10" fill="#E8DEF8" opacity="0.7"/>
    
    <!-- Subtle geometric accents -->
    <rect x="-100" y="-140" width="8" height="8" rx="4" fill="#FFFFFF" opacity="0.3"/>
    <rect x="92" y="-140" width="8" height="8" rx="4" fill="#FFFFFF" opacity="0.3"/>
    <rect x="-100" y="132" width="8" height="8" rx="4" fill="#FFFFFF" opacity="0.3"/>
    <rect x="92" y="132" width="8" height="8" rx="4" fill="#FFFFFF" opacity="0.3"/>
  </g>
  
  <!-- Material 3 floating action button style accent -->
  <circle cx="380" cy="132" r="24" fill="#E8DEF8" opacity="0.9"/>
  <circle cx="380" cy="132" r="20" fill="#6750A4"/>
  <path d="M 380 122 L 380 142 M 370 132 L 390 132" stroke="#FFFFFF" stroke-width="2" stroke-linecap="round"/>
  
  <!-- Additional Material 3 design elements -->
  <circle cx="132" cy="380" r="16" fill="#E8DEF8" opacity="0.7"/>
  <circle cx="132" cy="380" r="12" fill="#6750A4"/>
  <circle cx="132" cy="380" r="4" fill="#FFFFFF"/>
</svg> 